<svg width="28" height="28" viewBox="0 0 28 28" fill="none" xmlns="http://www.w3.org/2000/svg">
<path d="M5.79984 20.8C6.93317 19.9334 8.19984 19.25 9.59984 18.75C10.9998 18.25 12.4665 18 13.9998 18C15.5332 18 16.9998 18.25 18.3998 18.75C19.7998 19.25 21.0665 19.9334 22.1998 20.8C22.9776 19.8889 23.5832 18.8556 24.0165 17.7C24.4498 16.5445 24.6665 15.3111 24.6665 14C24.6665 11.0445 23.6276 8.5278 21.5498 6.45002C19.4721 4.37224 16.9554 3.33335 13.9998 3.33335C11.0443 3.33335 8.52762 4.37224 6.44984 6.45002C4.37206 8.5278 3.33317 11.0445 3.33317 14C3.33317 15.3111 3.54984 16.5445 3.98317 17.7C4.4165 18.8556 5.02206 19.8889 5.79984 20.8ZM13.9998 15.3334C12.6887 15.3334 11.5832 14.8834 10.6832 13.9834C9.78317 13.0834 9.33317 11.9778 9.33317 10.6667C9.33317 9.35558 9.78317 8.25002 10.6832 7.35002C11.5832 6.45002 12.6887 6.00002 13.9998 6.00002C15.3109 6.00002 16.4165 6.45002 17.3165 7.35002C18.2165 8.25002 18.6665 9.35558 18.6665 10.6667C18.6665 11.9778 18.2165 13.0834 17.3165 13.9834C16.4165 14.8834 15.3109 15.3334 13.9998 15.3334ZM13.9998 27.3334C12.1554 27.3334 10.4221 26.9834 8.79984 26.2834C7.17762 25.5834 5.7665 24.6334 4.5665 23.4334C3.3665 22.2334 2.4165 20.8222 1.7165 19.2C1.0165 17.5778 0.666504 15.8445 0.666504 14C0.666504 12.1556 1.0165 10.4222 1.7165 8.80002C2.4165 7.1778 3.3665 5.76669 4.5665 4.56669C5.7665 3.36669 7.17762 2.41669 8.79984 1.71669C10.4221 1.01669 12.1554 0.666687 13.9998 0.666687C15.8443 0.666687 17.5776 1.01669 19.1998 1.71669C20.8221 2.41669 22.2332 3.36669 23.4332 4.56669C24.6332 5.76669 25.5832 7.1778 26.2832 8.80002C26.9832 10.4222 27.3332 12.1556 27.3332 14C27.3332 15.8445 26.9832 17.5778 26.2832 19.2C25.5832 20.8222 24.6332 22.2334 23.4332 23.4334C22.2332 24.6334 20.8221 25.5834 19.1998 26.2834C17.5776 26.9834 15.8443 27.3334 13.9998 27.3334Z" fill="#1D1B20"/>
</svg>
