<svg width="28" height="28" viewBox="0 0 28 28" fill="none" xmlns="http://www.w3.org/2000/svg">
<path d="M12.6665 20.6667H15.3332V15.3334H20.6665V12.6667H15.3332V7.33335H12.6665V12.6667H7.33317V15.3334H12.6665V20.6667ZM13.9998 27.3334C12.1554 27.3334 10.4221 26.9889 8.79984 26.3C7.17762 25.5889 5.7665 24.6334 4.5665 23.4334C3.3665 22.2334 2.41095 20.8222 1.69984 19.2C1.01095 17.5778 0.666504 15.8445 0.666504 14C0.666504 12.1556 1.01095 10.4222 1.69984 8.80002C2.41095 7.1778 3.3665 5.76669 4.5665 4.56669C5.7665 3.36669 7.17762 2.42224 8.79984 1.73335C10.4221 1.02224 12.1554 0.666687 13.9998 0.666687C15.8443 0.666687 17.5776 1.02224 19.1998 1.73335C20.8221 2.42224 22.2332 3.36669 23.4332 4.56669C24.6332 5.76669 25.5776 7.1778 26.2665 8.80002C26.9776 10.4222 27.3332 12.1556 27.3332 14C27.3332 15.8445 26.9776 17.5778 26.2665 19.2C25.5776 20.8222 24.6332 22.2334 23.4332 23.4334C22.2332 24.6334 20.8221 25.5889 19.1998 26.3C17.5776 26.9889 15.8443 27.3334 13.9998 27.3334ZM13.9998 24.6667C16.9776 24.6667 19.4998 23.6334 21.5665 21.5667C23.6332 19.5 24.6665 16.9778 24.6665 14C24.6665 11.0222 23.6332 8.50002 21.5665 6.43335C19.4998 4.36669 16.9776 3.33335 13.9998 3.33335C11.0221 3.33335 8.49984 4.36669 6.43317 6.43335C4.3665 8.50002 3.33317 11.0222 3.33317 14C3.33317 16.9778 4.3665 19.5 6.43317 21.5667C8.49984 23.6334 11.0221 24.6667 13.9998 24.6667Z" fill="#1D1B20"/>
</svg>
