<svg width="24" height="31" viewBox="0 0 24 31" fill="none" xmlns="http://www.w3.org/2000/svg">
<path d="M15.2344 24.8281C14.0677 25.151 12.7448 25.3125 11.2656 25.3125C9.78646 25.3125 8.36458 25.0365 7 24.4844C5.63542 23.9323 4.47396 23.1302 3.51562 22.0781C1.53646 19.901 0.546875 16.8646 0.546875 12.9688C0.546875 9.09375 1.60938 6.03125 3.73438 3.78125C5.80729 1.59375 8.54688 0.5 11.9531 0.5C15.5469 0.5 18.2969 1.59375 20.2031 3.78125C22.0885 5.9375 23.0312 9 23.0312 12.9688C23.0312 16.8229 21.974 19.8542 19.8594 22.0625C19.1927 22.7604 18.4375 23.349 17.5938 23.8281L21.7188 28.7969L19.0938 30.5625C18.7188 30.0208 18.3073 29.3802 17.8594 28.6406C17.4115 27.9115 16.9375 27.1927 16.4375 26.4844L15.2344 24.8281ZM3.32812 13C3.31771 14.6146 3.50521 16.0469 3.89062 17.2969C4.27604 18.5365 4.83854 19.5729 5.57812 20.4062C7.06771 22.0833 9.15104 22.901 11.8281 22.8594C14.4635 22.8385 16.526 21.9792 18.0156 20.2812C19.5573 18.5208 20.3073 16.026 20.2656 12.7969C20.1823 6.23438 17.2969 2.95312 11.6094 2.95312C9.01562 2.95312 6.99479 3.82812 5.54688 5.57812C4.08854 7.33854 3.34896 9.8125 3.32812 13Z" fill="black"/>
</svg>
